Coordinates
version=1
nRows=14
nColumns=63
inDegrees=yes

Units are S.I. units (second, meters, Newtons, ...)
If the header above contains a line with 'inDegrees', this indicates whether rotational values are in degrees (yes) or radians (no).

endheader
time	pelvis_tilt	pelvis_list	pelvis_rotation	pelvis_tx	pelvis_ty	pelvis_tz	hip_flexion_r	hip_adduction_r	hip_rotation_r	knee_angle_r	knee_angle_r_beta	ankle_angle_r	subtalar_angle_r	mtp_angle_r	hip_flexion_l	hip_adduction_l	hip_rotation_l	knee_angle_l	knee_angle_l_beta	ankle_angle_l	subtalar_angle_l	mtp_angle_l	L5_S1_Flex_Ext	L5_S1_Lat_Bending	L5_S1_axial_rotation	L4_L5_Flex_Ext	L4_L5_Lat_Bending	L4_L5_axial_rotation	L3_L4_Flex_Ext	L3_L4_Lat_Bending	L3_L4_axial_rotation	L2_L3_Flex_Ext	L2_L3_Lat_Bending	L2_L3_axial_rotation	L1_L2_Flex_Ext	L1_L2_Lat_Bending	L1_L2_axial_rotation	L1_T12_Flex_Ext	L1_T12_Lat_Bending	L1_T12_axial_rotation	Abs_r3	Abs_r2	Abs_r1	Abs_t1	Abs_t2	neck_flexion	neck_bending	neck_rotation	arm_flex_r	arm_add_r	arm_rot_r	elbow_flex_r	pro_sup_r	wrist_flex_r	wrist_dev_r	arm_flex_l	arm_add_l	arm_rot_l	elbow_flex_l	pro_sup_l	wrist_flex_l	wrist_dev_l
2.756098	2.826476	-12.060527	107.856681	0.454116	0.782598	1.073942	12.862642	0.377326	-23.115068	7.707344	0.134519	25.546538	17.048254	0.000000	16.526036	-1.772871	-1.908319	9.029165	0.157589	24.532751	13.025520	0.000000	-0.146872	-0.426848	0.935791	-0.272757	-0.567708	0.994278	-0.241297	-1.037838	0.994278	-0.167860	-1.037838	0.818817	-0.136386	-0.870429	0.760330	-0.083923	-0.661188	0.701843	-1.049095	-4.828591	5.204590	0.000000	0.000000	19.436726	2.534296	-12.662877	58.124058	1.613708	-5.580630	77.765577	73.679073	-9.092965	0.576916	55.460103	3.305263	7.774031	78.297158	86.245539	-13.112365	-14.062058
2.780488	2.380697	-11.755732	106.824364	0.454415	0.783132	1.073253	12.505998	0.152117	-22.080373	7.919081	0.138214	25.628195	17.061059	0.000000	15.933427	-1.682236	-2.936889	9.068398	0.158273	24.809572	13.183093	0.000000	-0.127241	-0.448670	1.113295	-0.236298	-0.596731	1.182876	-0.209044	-1.090896	1.182876	-0.145423	-1.090896	0.974134	-0.118156	-0.914928	0.904553	-0.072705	-0.694990	0.834972	-0.908867	-5.075445	6.191816	0.000000	0.000000	19.185976	2.255155	-12.709679	56.448854	1.689445	-7.665577	78.276363	78.284052	-8.031233	0.620845	54.012511	2.670392	6.697731	79.433698	86.511162	-12.874380	-13.308718
2.804878	1.932642	-11.423758	105.755152	0.454695	0.783735	1.072282	12.111075	-0.063980	-20.992203	8.097844	0.141334	25.675491	17.049251	0.000000	15.290688	-1.592038	-3.990943	9.093543	0.158712	25.075972	13.332150	0.000000	-0.107731	-0.468140	1.297825	-0.200066	-0.622626	1.378939	-0.176991	-1.138236	1.378939	-0.123125	-1.138236	1.135597	-0.100039	-0.954631	1.054483	-0.061557	-0.725149	0.973369	-0.769509	-5.295694	7.218114	0.000000	0.000000	19.025498	2.015465	-12.710094	54.444644	1.739410	-9.820429	79.046935	82.196946	-7.150600	0.724344	52.447942	2.045039	5.574783	80.535512	86.653778	-12.513514	-12.621726
2.829268	1.463322	-11.069065	104.624315	0.455009	0.784422	1.070952	11.669030	-0.279433	-19.821041	8.230233	0.143645	25.699734	17.009875	0.000000	14.576940	-1.489990	-5.057839	9.075905	0.158404	25.313181	13.430319	0.000000	-0.090670	-0.488397	1.489450	-0.168383	-0.649568	1.582540	-0.148961	-1.187488	1.582540	-0.103627	-1.187488	1.303269	-0.084196	-0.995939	1.210178	-0.051809	-0.756527	1.117087	-0.647645	-5.524841	8.283873	0.000000	0.000000	18.952576	1.874852	-12.640956	52.145023	1.799834	-12.047954	80.051957	85.603855	-6.502862	1.082424	50.775413	1.384908	4.443295	81.641534	86.693650	-12.098533	-11.957532
2.853659	0.996118	-10.708765	103.520985	0.455310	0.785156	1.069340	11.209779	-0.501635	-18.667510	8.328814	0.145365	25.723949	16.948329	0.000000	13.858355	-1.371086	-6.162174	9.069563	0.158294	25.549589	13.622032	0.000000	-0.074790	-0.509162	1.673515	-0.138893	-0.677186	1.778110	-0.122873	-1.237977	1.778110	-0.085478	-1.237977	1.464326	-0.069450	-1.038284	1.359731	-0.042735	-0.788692	1.255136	-0.534219	-5.759744	9.307588	0.000000	0.000000	18.988712	1.823251	-12.567260	49.553868	1.852783	-14.256838	81.261287	88.289780	-6.195760	1.693589	49.010611	0.739156	3.267994	82.713505	86.907183	-11.644851	-11.252395
2.878049	0.539717	-10.334522	102.458682	0.455601	0.785920	1.067432	10.724464	-0.721480	-17.560659	8.404390	0.146684	25.753583	16.873597	0.000000	13.125898	-1.241755	-7.247048	9.067863	0.158264	25.784702	13.844556	0.000000	-0.061692	-0.529585	1.852226	-0.114569	-0.704348	1.967991	-0.101355	-1.287633	1.967991	-0.070508	-1.287633	1.620698	-0.057288	-1.079930	1.504934	-0.035251	-0.820327	1.389170	-0.440663	-5.990772	10.301527	0.000000	0.000000	19.160467	1.854688	-12.473210	46.669886	1.879692	-16.376014	82.645133	90.070352	-6.264091	2.639361	47.191988	0.138211	2.140893	83.672265	87.162122	-11.191497	-10.421884
2.902439	0.078901	-9.957468	101.438128	0.455868	0.786688	1.065258	10.220532	-0.956607	-16.510543	8.464204	0.147728	25.789154	16.785881	0.000000	12.385453	-1.087345	-8.316934	9.060457	0.158135	26.008018	14.107484	0.000000	-0.050137	-0.552401	2.028260	-0.093110	-0.734693	2.155026	-0.082371	-1.343107	2.155026	-0.057302	-1.343107	1.774728	-0.046558	-1.126456	1.647961	-0.028649	-0.855669	1.521195	-0.358127	-6.248868	11.280575	0.000000	0.000000	19.487159	1.942537	-12.400831	43.533511	1.867421	-18.329065	84.088791	90.886743	-6.634259	3.873344	45.356323	-0.332169	1.076803	84.349468	87.474991	-10.700265	-9.572371
2.926829	-0.368688	-9.569594	100.467245	0.456099	0.787412	1.062834	9.693908	-1.190236	-15.545842	8.521647	0.148731	25.831506	16.690706	0.000000	11.639027	-0.925153	-9.358524	9.060163	0.158130	26.232170	14.394625	0.000000	-0.040309	-0.574752	2.205030	-0.074857	-0.764420	2.342844	-0.066223	-1.397451	2.342844	-0.046069	-1.397451	1.929401	-0.037431	-1.172034	1.791587	-0.023032	-0.890290	1.653772	-0.287922	-6.501706	12.263715	0.000000	0.000000	19.984063	2.037138	-12.323275	40.198886	1.791587	-20.028283	85.490400	90.612520	-7.335776	5.363951	43.525795	-0.677544	0.186905	84.716786	87.767206	-10.271370	-8.430667
2.951220	-0.776342	-9.179510	99.646394	0.456197	0.788046	1.060299	9.159338	-1.420879	-14.783416	8.577677	0.149709	25.875430	16.595293	0.000000	10.926441	-0.749957	-10.274651	9.080971	0.158493	26.449177	14.690332	0.000000	-0.030637	-0.593278	2.370556	-0.056896	-0.789060	2.518716	-0.050334	-1.442496	2.518716	-0.035015	-1.442496	2.074236	-0.028450	-1.209813	1.926077	-0.017506	-0.918988	1.777917	-0.218838	-6.711280	13.184320	0.000000	0.000000	20.665050	2.145844	-12.194260	36.737768	1.624956	-21.374556	86.727123	89.063750	-8.400474	6.972890	41.713462	-0.889186	-0.451001	84.711939	88.043253	-9.952870	-6.914070
2.975610	-1.166149	-8.789281	98.868337	0.456243	0.788575	1.057628	8.629361	-1.645260	-14.103441	8.670338	0.151326	25.933355	16.455095	0.000000	10.219970	-0.580215	-11.180891	9.108889	0.158980	26.690218	15.021400	0.000000	-0.021791	-0.608799	2.542990	-0.040468	-0.809703	2.701927	-0.035801	-1.480234	2.701927	-0.024905	-1.480234	2.225116	-0.020235	-1.241463	2.066179	-0.012451	-0.943030	1.907242	-0.155652	-6.886856	14.143347	0.000000	0.000000	21.443276	2.172469	-12.079378	33.210230	1.447169	-22.491419	87.685891	87.238072	-9.593840	9.036308	39.896987	-1.005718	-0.768699	84.383612	88.269590	-9.797458	-4.838961
3.000000	-1.521636	-8.403928	98.193701	0.456161	0.788973	1.054923	8.124374	-1.865608	-13.576538	8.819910	0.153936	26.003514	16.274540	0.000000	9.540880	-0.409767	-11.986781	9.144745	0.159606	26.948541	15.335717	0.000000	-0.013960	-0.618848	2.710399	-0.025924	-0.823068	2.879799	-0.022934	-1.504667	2.879799	-0.015954	-1.504667	2.371600	-0.012963	-1.261955	2.202200	-0.007977	-0.958595	2.032800	-0.099712	-7.000531	15.074429	0.000000	0.000000	22.305742	2.120987	-11.960900	29.723855	1.252077	-23.308490	88.305270	85.458568	-10.878422	11.373197	38.085915	-1.051818	-0.735889	83.718299	88.453986	-9.758330	-2.377585
3.024390	-1.847497	-8.020159	97.604788	0.455952	0.789249	1.052221	7.651027	-2.080642	-13.168333	9.034618	0.157684	26.095159	16.046689	0.000000	8.886015	-0.238743	-12.686657	9.189957	0.160395	27.215680	15.604871	0.000000	-0.008670	-0.623815	2.868134	-0.016102	-0.829674	3.047393	-0.014245	-1.516743	3.047393	-0.009910	-1.516743	2.509618	-0.008051	-1.272083	2.330359	-0.004954	-0.966289	2.151101	-0.061932	-7.056717	15.951703	0.000000	0.000000	23.208477	2.032228	-11.824804	26.432175	1.040156	-23.765809	88.498569	84.015433	-12.227087	13.724332	36.255826	-1.066801	-0.392005	82.794125	88.595810	-9.840555	0.212128
3.048780	-2.123665	-7.648926	97.140984	0.455552	0.789417	1.049568	7.219053	-2.270176	-12.865909	9.297427	0.162271	26.203621	15.717326	0.000000	8.273717	-0.079244	-13.231333	9.240979	0.161286	27.479586	15.819458	0.000000	-0.003735	-0.621699	3.000283	-0.006937	-0.826860	3.187801	-0.006137	-1.511599	3.187801	-0.004269	-1.511599	2.625248	-0.003469	-1.267768	2.437730	-0.002134	-0.963012	2.250213	-0.026681	-7.032783	16.686676	0.000000	0.000000	24.071367	1.918538	-11.620169	23.478915	0.834080	-23.859989	88.228729	82.829995	-13.626115	15.959690	34.378356	-1.072968	0.195319	81.715646	88.696941	-10.138043	2.632963
3.073171	-2.355100	-7.299042	96.827664	0.454934	0.789497	1.047075	6.840373	-2.443654	-12.685147	9.610526	0.167735	26.339860	15.286127	0.000000	7.728929	0.078400	-13.592453	9.315706	0.162590	27.741399	15.974196	0.000000	0.000137	-0.614094	3.095049	0.000255	-0.816745	3.288490	0.000226	-1.493108	3.288490	0.000157	-1.493108	2.708168	0.000128	-1.252260	2.514727	0.000079	-0.951232	2.321287	0.000982	-6.946754	17.213735	0.000000	0.000000	24.853514	1.804299	-11.358831	20.966805	0.651954	-23.602360	87.499822	81.815725	-15.040633	17.951534	32.486785	-1.048225	0.955124	80.542568	88.747907	-10.673925	4.655415
